<mxfile host="65bd71144e">
    <diagram id="TutGyA394lG98HWUhUaM" name="第 1 页">
        <mxGraphModel dx="1298" dy="740" grid="1" gridSize="10" guides="1" tooltips="1" connect="1" arrows="1" fold="1" page="1" pageScale="1" pageWidth="827" pageHeight="1169" math="0" shadow="0">
            <root>
                <mxCell id="0"/>
                <mxCell id="1" parent="0"/>
                <mxCell id="TTkAWkz69PnGpV0BIIj8-1" value="A" style="swimlane;swimlaneFillColor=#007FFF;" vertex="1" parent="1">
                    <mxGeometry x="74" y="30" width="200" height="200" as="geometry"/>
                </mxCell>
                <mxCell id="TTkAWkz69PnGpV0BIIj8-2" value="B" style="swimlane;startSize=23;swimlaneFillColor=#FF0080;" vertex="1" parent="1">
                    <mxGeometry x="554" y="30" width="200" height="200" as="geometry">
                        <mxRectangle x="490" y="240" width="40" height="23" as="alternateBounds"/>
                    </mxGeometry>
                </mxCell>
                <mxCell id="TTkAWkz69PnGpV0BIIj8-3" value="" style="endArrow=classic;html=1;fillColor=#0050ef;" edge="1" parent="1">
                    <mxGeometry relative="1" as="geometry">
                        <mxPoint x="274" y="90" as="sourcePoint"/>
                        <mxPoint x="554" y="90" as="targetPoint"/>
                    </mxGeometry>
                </mxCell>
                <mxCell id="TTkAWkz69PnGpV0BIIj8-4" value="前进" style="edgeLabel;resizable=0;html=1;align=center;verticalAlign=middle;fontSize=16;" connectable="0" vertex="1" parent="TTkAWkz69PnGpV0BIIj8-3">
                    <mxGeometry relative="1" as="geometry"/>
                </mxCell>
                <mxCell id="TTkAWkz69PnGpV0BIIj8-5" value="" style="endArrow=classic;html=1;fontSize=16;fontColor=#000000;strokeColor=#000000;startArrow=none;" edge="1" parent="1" source="TTkAWkz69PnGpV0BIIj8-6">
                    <mxGeometry relative="1" as="geometry">
                        <mxPoint x="554" y="190" as="sourcePoint"/>
                        <mxPoint x="274" y="190" as="targetPoint"/>
                    </mxGeometry>
                </mxCell>
                <mxCell id="TTkAWkz69PnGpV0BIIj8-6" value="" style="shape=sumEllipse;perimeter=ellipsePerimeter;whiteSpace=wrap;html=1;backgroundOutline=1;fontSize=16;fillColor=#f8cecc;strokeColor=#b85450;" vertex="1" parent="1">
                    <mxGeometry x="399" y="175" width="30" height="30" as="geometry"/>
                </mxCell>
                <mxCell id="TTkAWkz69PnGpV0BIIj8-7" value="" style="endArrow=none;html=1;fontSize=16;fontColor=#000000;strokeColor=#000000;" edge="1" parent="1" target="TTkAWkz69PnGpV0BIIj8-6">
                    <mxGeometry relative="1" as="geometry">
                        <mxPoint x="554" y="190" as="sourcePoint"/>
                        <mxPoint x="274" y="190" as="targetPoint"/>
                    </mxGeometry>
                </mxCell>
            </root>
        </mxGraphModel>
    </diagram>
    <diagram id="X_3pkzDxHFjzJE94lvqr" name="第 2 页">
        <mxGraphModel dx="1298" dy="740" grid="1" gridSize="10" guides="1" tooltips="1" connect="1" arrows="1" fold="1" page="1" pageScale="1" pageWidth="827" pageHeight="1169" math="0" shadow="0">
            <root>
                <mxCell id="2ioHuEJy38tbEKZabfwR-0"/>
                <mxCell id="2ioHuEJy38tbEKZabfwR-1" parent="2ioHuEJy38tbEKZabfwR-0"/>
                <mxCell id="MSPMmQisRy4ZJrby_1dc-0" value="A" style="swimlane;swimlaneFillColor=#007FFF;" vertex="1" parent="2ioHuEJy38tbEKZabfwR-1">
                    <mxGeometry x="74" y="30" width="200" height="200" as="geometry"/>
                </mxCell>
                <mxCell id="MSPMmQisRy4ZJrby_1dc-1" value="B" style="swimlane;startSize=23;swimlaneFillColor=#FF0080;" vertex="1" parent="2ioHuEJy38tbEKZabfwR-1">
                    <mxGeometry x="554" y="30" width="200" height="200" as="geometry">
                        <mxRectangle x="490" y="240" width="40" height="23" as="alternateBounds"/>
                    </mxGeometry>
                </mxCell>
                <mxCell id="MSPMmQisRy4ZJrby_1dc-2" value="" style="endArrow=classic;html=1;fillColor=#0050ef;" edge="1" parent="2ioHuEJy38tbEKZabfwR-1">
                    <mxGeometry relative="1" as="geometry">
                        <mxPoint x="274" y="90" as="sourcePoint"/>
                        <mxPoint x="554" y="90" as="targetPoint"/>
                    </mxGeometry>
                </mxCell>
                <mxCell id="MSPMmQisRy4ZJrby_1dc-3" value="前进" style="edgeLabel;resizable=0;html=1;align=center;verticalAlign=middle;fontSize=16;" connectable="0" vertex="1" parent="MSPMmQisRy4ZJrby_1dc-2">
                    <mxGeometry relative="1" as="geometry"/>
                </mxCell>
                <mxCell id="MSPMmQisRy4ZJrby_1dc-4" value="" style="endArrow=classic;html=1;fontSize=16;fontColor=#000000;strokeColor=#000000;startArrow=none;" edge="1" parent="2ioHuEJy38tbEKZabfwR-1" source="MSPMmQisRy4ZJrby_1dc-5">
                    <mxGeometry relative="1" as="geometry">
                        <mxPoint x="554" y="190" as="sourcePoint"/>
                        <mxPoint x="274" y="190" as="targetPoint"/>
                    </mxGeometry>
                </mxCell>
                <mxCell id="MSPMmQisRy4ZJrby_1dc-5" value="" style="shape=sumEllipse;perimeter=ellipsePerimeter;whiteSpace=wrap;html=1;backgroundOutline=1;fontSize=16;fillColor=#f8cecc;strokeColor=#b85450;" vertex="1" parent="2ioHuEJy38tbEKZabfwR-1">
                    <mxGeometry x="399" y="175" width="30" height="30" as="geometry"/>
                </mxCell>
                <mxCell id="MSPMmQisRy4ZJrby_1dc-6" value="" style="endArrow=none;html=1;fontSize=16;fontColor=#000000;strokeColor=#000000;" edge="1" parent="2ioHuEJy38tbEKZabfwR-1" target="MSPMmQisRy4ZJrby_1dc-5">
                    <mxGeometry relative="1" as="geometry">
                        <mxPoint x="554" y="190" as="sourcePoint"/>
                        <mxPoint x="274" y="190" as="targetPoint"/>
                    </mxGeometry>
                </mxCell>
                <mxCell id="D3zR2FKjM3bdeoXriK2o-0" value="A" style="swimlane;swimlaneFillColor=#007FFF;" vertex="1" parent="2ioHuEJy38tbEKZabfwR-1">
                    <mxGeometry x="80" y="400" width="200" height="200" as="geometry"/>
                </mxCell>
                <mxCell id="D3zR2FKjM3bdeoXriK2o-1" value="B" style="swimlane;startSize=23;swimlaneFillColor=#FF0080;" vertex="1" parent="2ioHuEJy38tbEKZabfwR-1">
                    <mxGeometry x="560" y="400" width="200" height="200" as="geometry">
                        <mxRectangle x="490" y="240" width="40" height="23" as="alternateBounds"/>
                    </mxGeometry>
                </mxCell>
                <mxCell id="D3zR2FKjM3bdeoXriK2o-2" value="" style="endArrow=classic;html=1;fillColor=#0050ef;" edge="1" parent="2ioHuEJy38tbEKZabfwR-1">
                    <mxGeometry relative="1" as="geometry">
                        <mxPoint x="280" y="460" as="sourcePoint"/>
                        <mxPoint x="560" y="460" as="targetPoint"/>
                    </mxGeometry>
                </mxCell>
                <mxCell id="D3zR2FKjM3bdeoXriK2o-3" value="前进" style="edgeLabel;resizable=0;html=1;align=center;verticalAlign=middle;fontSize=16;" connectable="0" vertex="1" parent="D3zR2FKjM3bdeoXriK2o-2">
                    <mxGeometry relative="1" as="geometry"/>
                </mxCell>
                <mxCell id="D3zR2FKjM3bdeoXriK2o-4" value="" style="endArrow=classic;html=1;fontSize=16;fontColor=#000000;strokeColor=#000000;" edge="1" parent="2ioHuEJy38tbEKZabfwR-1">
                    <mxGeometry relative="1" as="geometry">
                        <mxPoint x="560" y="560" as="sourcePoint"/>
                        <mxPoint x="280" y="560" as="targetPoint"/>
                    </mxGeometry>
                </mxCell>
                <mxCell id="D3zR2FKjM3bdeoXriK2o-5" value="后退" style="edgeLabel;resizable=0;html=1;align=center;verticalAlign=middle;fontSize=16;" connectable="0" vertex="1" parent="D3zR2FKjM3bdeoXriK2o-4">
                    <mxGeometry relative="1" as="geometry"/>
                </mxCell>
            </root>
        </mxGraphModel>
    </diagram>
</mxfile>